<?xml version="1.0" standalone="no"?>
<!DOCTYPE svg PUBLIC "-//W3C//DTD SVG 20010904//EN"
 "http://www.w3.org/TR/2001/REC-SVG-20010904/DTD/svg10.dtd">
<svg version="1.0" xmlns="http://www.w3.org/2000/svg"
 width="300.000000pt" height="450.000000pt" viewBox="0 0 300.000000 450.000000"
 preserveAspectRatio="xMidYMid meet">
<metadata>
Created by potrace 1.10, written by Peter Selinger 2001-2011
</metadata>
<g transform="translate(0.000000,450.000000) scale(0.100000,-0.100000)"
fill="#20124d" stroke="none">
<path d="M1455 4182 c-16 -1 -37 -5 -45 -9 -15 -5 -28 -7 -98 -11 -21 -1 -31
-6 -26 -13 10 -17 -17 -29 -39 -17 -15 8 -18 7 -12 -3 6 -9 3 -11 -9 -6 -10 4
-15 3 -11 -3 3 -6 -1 -10 -10 -10 -28 0 -96 -40 -89 -52 4 -7 3 -8 -5 -4 -15
10 -43 -13 -34 -27 3 -5 1 -7 -5 -3 -12 7 -109 -72 -104 -86 1 -5 -6 -11 -15
-15 -10 -3 -37 -25 -60 -49 -46 -46 -91 -157 -94 -230 -4 -122 -1 -155 16
-168 10 -7 15 -18 11 -24 -4 -7 -4 -12 1 -12 15 0 33 -55 52 -158 18 -99 17
-114 -6 -91 -21 21 -52 0 -64 -43 -21 -78 -14 -138 31 -274 46 -138 71 -174
118 -174 28 0 30 -3 37 -52 8 -53 10 -64 15 -73 1 -3 3 -8 4 -12 1 -5 13 -30
27 -58 14 -27 25 -53 25 -57 -1 -3 3 -10 8 -15 5 -5 6 -2 1 6 -6 10 -4 12 4 7
7 -5 10 -14 7 -21 -3 -8 -1 -15 5 -17 5 -2 12 -53 14 -113 3 -61 2 -105 -3
-98 -4 6 -7 -23 -6 -65 0 -65 6 -91 38 -167 20 -49 51 -125 68 -168 26 -64 42
-89 99 -144 37 -36 83 -90 101 -119 18 -29 53 -82 77 -118 l44 -64 34 47 c18
25 42 60 52 76 34 53 76 103 96 115 42 25 106 121 180 275 116 239 139 332
100 391 -20 31 -19 40 3 23 16 -13 16 -13 0 7 -13 15 -18 38 -18 82 0 58 10
90 61 193 4 9 15 50 25 92 l18 75 33 -1 c62 -2 83 26 116 154 35 139 40 257
14 307 -21 39 -43 50 -68 33 -17 -10 -19 -8 -19 21 0 57 28 196 45 221 9 14
15 29 14 33 -1 5 -1 17 0 28 1 16 3 17 17 5 14 -12 16 -11 13 6 -3 11 -9 20
-16 20 -6 0 -15 4 -20 9 -5 5 -3 6 5 2 6 -4 12 -2 12 4 0 6 5 8 12 4 11 -7 11
-5 -10 45 -3 9 -1 12 6 7 7 -4 12 -1 12 8 0 9 -4 16 -8 16 -5 0 -9 6 -10 13
-1 16 -7 38 -17 60 -4 10 -5 21 -1 24 3 4 6 1 6 -5 0 -7 5 -12 12 -12 6 0 -1
13 -16 29 -15 16 -28 33 -28 38 -1 33 -40 104 -63 113 -17 7 -17 9 -2 9 9 1
17 5 17 9 0 5 -13 7 -29 6 -15 -1 -35 3 -42 8 -11 8 -10 9 4 4 26 -8 20 9 -13
37 -16 14 -30 29 -30 34 -1 26 -162 104 -245 118 -22 4 -63 18 -91 31 -50 24
-115 29 -229 16z m51 -20 c-2 -4 19 -9 49 -10 29 -1 81 -11 115 -22 35 -11 76
-20 92 -20 16 0 27 -3 25 -7 -3 -5 7 -9 23 -10 15 -1 47 -11 71 -23 24 -12 60
-29 79 -38 38 -18 53 -52 24 -52 -24 0 -10 -12 18 -15 13 -1 26 -3 31 -4 12
-2 8 -29 -5 -34 -7 -3 -1 -6 13 -6 14 -1 34 -8 45 -16 18 -14 18 -14 -11 -16
-24 -1 -26 -3 -7 -6 13 -3 19 -9 16 -15 -4 -6 -2 -8 4 -5 16 11 44 -4 38 -19
-3 -8 0 -14 6 -14 6 0 9 -3 5 -6 -3 -4 4 -22 17 -40 13 -19 23 -45 22 -57 -1
-12 1 -24 5 -27 11 -9 22 -53 11 -46 -7 4 -7 -4 0 -22 6 -16 8 -38 4 -48 -7
-19 -8 -19 -21 0 -8 10 -13 22 -11 25 2 3 -5 15 -16 26 -19 19 -19 19 0 -24
11 -24 25 -47 31 -50 13 -9 -5 -81 -20 -81 -6 0 -9 -13 -7 -29 1 -16 -4 -37
-12 -46 -11 -14 -15 -43 -13 -117 1 -91 0 -98 -15 -86 -10 7 -18 13 -20 14 -1
1 2 13 7 28 7 17 7 26 1 26 -6 0 -10 5 -10 11 0 5 5 7 10 4 6 -4 8 3 6 17 -3
13 -5 31 -5 41 -1 10 -6 15 -11 12 -6 -4 -8 -11 -5 -16 4 -5 1 -9 -5 -9 -6 0
-10 10 -9 23 4 43 -1 77 -12 77 -5 0 -7 -5 -3 -11 4 -8 0 -8 -15 0 -11 7 -21
8 -21 3 0 -15 26 -33 34 -24 4 4 6 3 5 -3 -6 -19 12 -100 19 -88 4 6 6 -25 5
-70 -2 -87 -5 -299 -4 -332 1 -12 4 -16 11 -9 5 5 10 34 11 64 1 77 7 92 30
85 10 -4 19 -2 19 4 0 5 -9 13 -20 16 -34 11 -20 88 24 128 20 18 51 24 42 8
-4 -5 -1 -11 5 -13 16 -5 28 -134 18 -202 -4 -32 -15 -66 -23 -75 -18 -20 -22
-46 -5 -35 7 4 9 -1 7 -12 -2 -11 -10 -18 -17 -16 -9 2 -9 -3 -1 -18 20 -37
-20 -80 -75 -80 -23 0 -26 3 -22 28 13 75 20 102 28 102 12 0 78 60 90 82 5
10 5 26 0 40 -7 17 -10 19 -10 6 -1 -10 -8 -18 -16 -18 -14 0 -19 -12 -16 -32
0 -5 -4 -8 -9 -8 -6 0 -10 -7 -10 -15 0 -8 -16 -25 -35 -37 -32 -21 -62 -59
-32 -42 9 6 9 4 1 -7 -7 -8 -10 -29 -8 -47 2 -18 -1 -43 -8 -55 -7 -12 -11
-28 -10 -34 2 -7 -5 -13 -15 -13 -10 0 -14 -4 -8 -8 17 -12 16 -32 -3 -33 -9
0 -12 -3 -5 -5 7 -3 9 -12 6 -20 -3 -7 -8 -12 -13 -9 -4 2 -5 -7 -2 -21 2 -14
0 -35 -6 -47 -5 -12 -24 -53 -42 -90 -26 -57 -40 -74 -81 -99 -55 -35 -67 -58
-16 -32 17 9 34 20 37 23 3 3 18 17 34 31 l28 25 -7 -25 c-12 -38 -7 -108 10
-140 36 -70 8 -173 -103 -374 -40 -71 -72 -133 -72 -138 0 -5 -5 -6 -12 -2 -8
5 -9 0 -6 -14 4 -12 2 -20 -2 -17 -5 3 -13 -10 -20 -29 -6 -19 -22 -42 -36
-52 -45 -33 -70 -58 -95 -94 -13 -19 -29 -41 -36 -48 -7 -8 -11 -18 -8 -23 4
-5 2 -9 -2 -9 -5 0 -17 -14 -27 -30 l-17 -30 -47 61 c-72 95 -91 123 -91 136
-1 6 -23 31 -50 55 -41 35 -65 72 -129 198 -47 90 -85 178 -91 210 -12 59 -11
191 2 183 11 -6 9 82 -3 113 -10 26 -10 26 13 11 13 -8 38 -30 56 -47 19 -20
37 -30 47 -26 8 3 13 2 9 -3 -3 -5 9 -13 27 -16 18 -4 43 -14 55 -22 15 -10
23 -11 23 -4 0 6 -7 11 -15 11 -8 0 -15 4 -15 8 0 5 -19 17 -42 28 -24 10 -46
22 -49 27 -3 5 -8 7 -10 5 -3 -1 -26 15 -53 37 -26 21 -43 41 -37 43 6 2 9 7
7 11 -8 12 11 34 23 26 9 -5 9 -11 -1 -23 -11 -13 -11 -14 2 -10 20 6 19 54
-1 49 -8 -2 -20 -4 -26 -4 -7 0 -13 -7 -13 -16 0 -15 -29 32 -33 53 -1 5 -10
18 -20 28 -10 11 -16 26 -13 34 3 8 1 14 -5 14 -6 0 -9 7 -5 15 3 8 0 15 -5
15 -6 0 -9 8 -7 18 3 10 -1 23 -9 30 -16 15 -18 36 -2 27 9 -6 -8 32 -21 45
-3 3 -6 14 -7 25 -1 11 -5 39 -7 62 -3 24 -8 48 -12 55 -5 7 -9 31 -11 53 -2
22 -8 61 -13 88 -13 62 -12 305 1 313 6 3 8 12 5 20 -3 7 7 22 21 34 15 11 20
20 12 20 -12 0 -12 2 0 9 9 6 10 11 2 15 -6 4 -11 2 -11 -3 0 -17 -20 -13 -27
5 -4 10 1 22 11 29 9 7 13 16 8 19 -15 9 -37 -41 -24 -56 7 -8 7 -19 2 -28 -5
-8 -6 -18 -4 -22 3 -4 1 -8 -4 -8 -5 0 -12 -9 -15 -20 -9 -36 -24 -21 -26 28
-3 69 -4 72 -12 66 -9 -5 -29 27 -29 46 0 6 5 8 12 4 7 -4 8 -3 4 5 -4 6 -12
9 -17 6 -5 -4 -14 6 -19 20 -13 33 -13 48 0 40 6 -3 7 1 4 10 -4 8 -1 22 6 30
6 7 10 22 8 32 -1 10 2 25 6 33 6 9 1 8 -12 -4 -12 -11 -22 -24 -22 -30 0 -6
5 -4 10 4 5 8 10 11 10 5 0 -5 -10 -21 -21 -35 l-20 -25 6 39 c3 21 9 43 12
50 9 12 10 18 12 46 0 10 11 28 23 40 12 11 18 20 12 21 -5 0 0 5 11 10 20 9
20 9 0 6 -11 -2 -19 -9 -17 -18 3 -11 1 -11 -9 -2 -10 10 -8 18 13 40 14 16
24 33 22 38 -2 6 17 23 42 39 29 18 43 33 40 42 -5 12 -2 12 17 3 20 -11 21
-11 8 5 -12 14 -12 16 4 10 12 -5 16 -4 12 3 -4 6 5 21 20 32 16 12 20 18 11
15 -10 -3 -18 -4 -18 0 0 16 180 79 203 71 7 -3 26 -1 42 4 23 7 16 8 -35 6
-36 -2 -82 -10 -104 -20 -21 -9 -40 -14 -43 -11 -2 2 5 7 16 11 12 3 27 12 33
18 14 13 84 47 96 47 4 0 0 -5 -8 -10 -8 -5 -10 -10 -5 -10 6 0 17 4 25 10 9
5 19 5 27 -1 6 -6 20 -9 30 -6 13 3 11 5 -6 6 -24 1 -24 1 -5 17 10 8 13 12 5
8 -9 -5 -12 -3 -7 5 4 6 13 11 19 9 7 -1 22 1 33 5 12 4 34 3 49 -3 26 -10 27
-9 14 7 -8 9 -9 14 -3 10 7 -4 29 0 50 7 46 17 57 19 50 8z m-689 -634 c-3 -8
-6 -5 -6 6 -1 11 2 17 5 13 3 -3 4 -12 1 -19z m1330 -150 c-3 -8 -6 -5 -6 6
-1 11 2 17 5 13 3 -3 4 -12 1 -19z m-1186 -21 c-10 -9 -11 -8 -5 6 3 10 9 15
12 12 3 -3 0 -11 -7 -18z m-71 -187 c12 0 33 -106 25 -130 -4 -11 -2 -20 4
-20 12 0 23 -50 26 -123 1 -29 7 -81 14 -116 7 -34 10 -65 8 -67 -2 -3 -16 1
-31 7 -25 12 -41 45 -38 81 0 10 -4 17 -10 15 -6 -1 -12 6 -13 16 -2 9 1 15 6
11 5 -3 9 0 9 5 0 6 -5 11 -11 11 -6 0 -9 7 -5 15 3 8 2 15 -3 15 -30 0 -53
188 -31 254 8 26 16 36 27 32 8 -3 18 -6 23 -6z"/>
<path d="M1465 4140 c3 -6 1 -10 -6 -10 -7 0 -10 -3 -6 -6 3 -3 13 -2 22 4 16
8 16 9 1 15 -10 4 -15 3 -11 -3z"/>
<path d="M1555 4130 c11 -5 29 -9 40 -9 20 0 20 0 0 9 -11 5 -29 9 -40 9 -20
0 -20 0 0 -9z"/>
<path d="M1358 4113 c7 -3 16 -2 19 1 4 3 -2 6 -13 5 -11 0 -14 -3 -6 -6z"/>
<path d="M1515 4110 c11 -5 29 -8 40 -8 16 0 15 2 -5 8 -34 11 -60 11 -35 0z"/>
<path d="M1621 4095 c13 -13 21 -15 35 -6 17 9 17 10 2 11 -9 0 -25 3 -35 6
-17 6 -17 6 -2 -11z"/>
<path d="M1518 4083 c7 -3 16 -2 19 1 4 3 -2 6 -13 5 -11 0 -14 -3 -6 -6z"/>
<path d="M1560 4075 c10 -12 10 -15 0 -15 -8 0 -11 -3 -7 -6 3 -3 14 -1 24 5
11 6 13 11 5 11 -7 0 -10 5 -7 10 3 6 -1 10 -11 10 -13 0 -14 -3 -4 -15z"/>
<path d="M1670 4063 c0 -11 3 -14 8 -7 4 6 14 14 22 17 10 4 8 6 -7 6 -16 1
-23 -5 -23 -16z"/>
<path d="M1325 4060 c-3 -6 1 -7 9 -4 18 7 21 14 7 14 -6 0 -13 -4 -16 -10z"/>
<path d="M1603 4055 c0 -8 4 -15 9 -15 4 0 8 4 8 9 0 5 10 12 23 14 17 3 15 5
-9 6 -21 1 -31 -4 -31 -14z"/>
<path d="M1800 4050 c8 -5 22 -10 30 -10 13 0 13 1 0 10 -8 5 -22 10 -30 10
-13 0 -13 -1 0 -10z"/>
<path d="M1696 4035 c7 -16 76 -37 87 -26 5 5 3 12 -4 16 -8 5 -10 4 -5 -3 10
-16 1 -15 -44 7 -24 11 -37 14 -34 6z"/>
<path d="M1518 4033 c12 -2 30 -2 40 0 9 3 -1 5 -23 4 -22 0 -30 -2 -17 -4z"/>
<path d="M1890 4030 c17 -11 47 -14 36 -3 -3 4 -17 8 -29 10 -17 2 -19 1 -7
-7z"/>
<path d="M1654 4021 c3 -5 -4 -11 -16 -14 -13 -4 -26 -1 -30 6 -6 9 -8 9 -8
-1 0 -10 -9 -12 -31 -7 -22 5 -29 4 -25 -4 8 -12 46 -14 124 -4 l54 6 -32 14
c-38 15 -43 16 -36 4z"/>
<path d="M1187 4009 c-10 -6 -38 -12 -63 -13 -25 -2 -47 -6 -50 -9 -12 -12 93
1 126 16 19 8 28 16 20 16 -8 0 -23 -4 -33 -10z"/>
<path d="M1298 4013 c7 -3 16 -2 19 1 4 3 -2 6 -13 5 -11 0 -14 -3 -6 -6z"/>
<path d="M1470 4010 c0 -5 -7 -10 -17 -10 -9 0 -14 -3 -11 -6 4 -3 26 1 50 10
43 15 43 15 11 16 -18 0 -33 -4 -33 -10z"/>
<path d="M1940 4012 c0 -4 9 -8 19 -8 11 0 17 4 15 8 -3 4 -12 8 -20 8 -8 0
-14 -4 -14 -8z"/>
<path d="M1255 4000 c-16 -7 -17 -9 -3 -9 9 -1 20 4 23 9 7 11 7 11 -20 0z"/>
<path d="M1818 4003 c7 -3 16 -2 19 1 4 3 -2 6 -13 5 -11 0 -14 -3 -6 -6z"/>
<path d="M1175 3975 c-24 -12 -25 -13 -5 -8 14 4 35 7 47 8 11 0 19 3 16 8 -6
10 -24 8 -58 -8z"/>
<path d="M1302 3985 c5 -6 158 -27 196 -27 13 0 27 3 32 8 5 5 -15 9 -48 9
-31 0 -86 3 -121 8 -35 4 -62 5 -59 2z"/>
<path d="M1102 3961 c3 -14 -15 -41 -27 -41 -8 0 -16 -4 -19 -8 -6 -10 14 -9
62 2 39 9 43 25 5 19 l-28 -4 24 14 c23 14 23 14 3 19 -12 3 -21 3 -20 -1z"/>
<path d="M1605 3957 c33 -7 66 -16 73 -20 7 -5 12 -4 12 2 0 5 10 12 23 14 13
3 8 4 -13 4 -19 0 -62 3 -95 6 l-60 6 60 -12z"/>
<path d="M1050 3945 c-14 -8 -19 -14 -10 -14 8 0 24 6 34 14 25 19 9 19 -24 0z"/>
<path d="M1357 3948 c-9 -6 -8 -8 3 -8 8 -1 36 -5 62 -9 26 -4 52 -5 58 -1 5
3 -17 11 -50 16 -33 6 -66 7 -73 2z"/>
<path d="M1210 3940 l-25 -8 25 0 c14 0 36 4 50 8 l25 8 -25 0 c-14 0 -36 -4
-50 -8z"/>
<path d="M1592 3940 c14 -4 32 -11 40 -15 7 -3 4 1 -6 9 -11 9 -29 16 -40 15
-17 -1 -16 -2 6 -9z"/>
<path d="M1280 3930 c-23 -7 -23 -8 -3 -9 12 -1 25 4 28 9 3 6 5 10 3 9 -2 -1
-14 -5 -28 -9z"/>
<path d="M1548 3928 c5 -5 16 -8 23 -6 8 3 3 7 -10 11 -17 4 -21 3 -13 -5z"/>
<path d="M1860 3930 c-9 -6 -10 -10 -3 -10 6 0 15 5 18 10 8 12 4 12 -15 0z"/>
<path d="M1977 3929 c7 -7 15 -10 18 -7 3 3 -2 9 -12 12 -14 6 -15 5 -6 -5z"/>
<path d="M1335 3910 c-16 -4 -52 -5 -80 -4 l-50 4 40 -11 c22 -6 58 -8 80 -4
22 3 56 6 75 6 26 -1 31 1 20 9 -17 11 -41 11 -85 0z"/>
<path d="M1110 3895 c-14 -8 -20 -14 -15 -14 6 0 21 6 35 14 14 8 21 14 15 14
-5 0 -21 -6 -35 -14z"/>
<path d="M1563 3900 c16 -5 35 -14 43 -21 12 -10 13 -9 9 4 -6 15 -37 27 -65
26 -8 0 -2 -5 13 -9z"/>
<path d="M1450 3889 c0 -5 9 -9 20 -9 12 0 39 -9 60 -19 44 -21 54 -11 15 15
-27 18 -95 27 -95 13z"/>
<path d="M1178 3873 c7 -3 16 -2 19 1 4 3 -2 6 -13 5 -11 0 -14 -3 -6 -6z"/>
<path d="M1253 3873 c9 -2 23 -2 30 0 6 3 -1 5 -18 5 -16 0 -22 -2 -12 -5z"/>
<path d="M1308 3873 c6 -2 18 -2 25 0 6 3 1 5 -13 5 -14 0 -19 -2 -12 -5z"/>
<path d="M1185 3860 c-29 -6 -29 -6 16 -18 26 -6 68 -9 97 -5 29 3 57 1 64 -4
14 -11 78 -26 78 -18 0 2 -15 9 -32 14 l-33 9 41 1 c23 1 49 -6 60 -15 18 -15
18 -15 -5 -8 -16 4 -21 3 -17 -5 4 -6 19 -11 33 -11 25 0 26 0 8 20 -19 21
-89 45 -104 36 -4 -3 -46 -2 -92 2 -46 4 -97 5 -114 2z"/>
<path d="M1505 3837 c19 -17 33 -23 39 -17 13 13 -2 27 -39 36 l-30 7 30 -26z"/>
<path d="M1970 3856 c0 -2 7 -7 16 -10 8 -3 12 -2 9 4 -6 10 -25 14 -25 6z"/>
<path d="M1656 3838 c3 -5 10 -6 15 -3 13 9 11 12 -6 12 -8 0 -12 -4 -9 -9z"/>
<path d="M1802 3835 c-10 -12 -10 -15 2 -15 7 0 16 7 20 15 7 19 -5 19 -22 0z"/>
<path d="M930 3810 c-8 -5 -12 -12 -9 -15 4 -3 12 1 19 10 14 17 11 19 -10 5z"/>
<path d="M1305 3811 c-28 -6 -28 -7 -8 -13 13 -3 25 -3 28 2 2 4 16 5 30 3 13
-3 23 -9 20 -13 -7 -12 14 -16 87 -15 38 0 68 -3 68 -6 0 -4 11 -6 25 -5 14 0
25 4 25 9 0 4 7 7 17 7 9 0 14 3 10 6 -3 4 -20 2 -36 -4 -21 -7 -31 -8 -31 -1
0 6 -13 8 -30 6 -16 -3 -62 3 -102 14 -40 10 -73 18 -73 18 0 -1 -13 -4 -30
-8z"/>
<path d="M1700 3810 c-9 -6 -10 -10 -3 -10 6 0 15 5 18 10 8 12 4 12 -15 0z"/>
<path d="M1052 3793 c15 -7 36 -9 44 -6 9 3 20 0 25 -8 6 -11 13 -11 26 -3 10
6 27 8 38 3 11 -4 14 -8 8 -8 -27 -2 -11 -16 17 -16 25 0 28 2 15 11 -8 6 -15
14 -15 18 0 9 28 8 32 -1 2 -5 21 -16 43 -26 l40 -19 -24 26 c-13 14 -28 23
-34 19 -5 -3 -13 0 -17 6 -4 8 -45 13 -117 14 -94 2 -106 0 -81 -10z"/>
<path d="M1745 3800 c3 -5 12 -7 20 -3 21 7 19 13 -6 13 -11 0 -18 -4 -14 -10z"/>
<path d="M1800 3792 c-14 -2 -29 -8 -35 -14 -7 -8 -6 -9 2 -4 7 4 22 2 34 -4
12 -7 25 -8 30 -3 14 14 -4 29 -31 25z"/>
<path d="M1883 3789 c-12 -5 -8 -7 15 -6 19 0 37 -4 40 -10 12 -18 47 -31 66
-24 14 6 10 10 -23 21 -22 7 -41 17 -41 21 0 9 -30 8 -57 -2z"/>
<path d="M1009 3773 c-23 -14 -23 -14 -2 -10 12 3 24 0 26 -6 4 -12 37 -2 37
12 0 16 -36 19 -61 4z"/>
<path d="M1630 3780 c-9 -6 -10 -10 -3 -10 6 0 15 5 18 10 8 12 4 12 -15 0z"/>
<path d="M1675 3780 c3 -5 8 -10 11 -10 2 0 4 5 4 10 0 6 -5 10 -11 10 -5 0
-7 -4 -4 -10z"/>
<path d="M1710 3786 c0 -2 9 -6 20 -9 11 -3 18 -1 14 4 -5 9 -34 13 -34 5z"/>
<path d="M1325 3760 c20 -22 35 -18 35 8 0 15 -2 15 -10 2 -6 -10 -10 -11 -10
-2 0 6 -7 12 -17 12 -14 0 -14 -2 2 -20z"/>
<path d="M1376 3758 c3 -5 15 -6 26 -2 11 3 18 2 15 -2 -3 -5 10 -10 29 -11
19 -1 34 2 34 7 0 5 -8 9 -17 9 -10 1 -35 3 -55 4 -20 2 -35 0 -32 -5z"/>
<path d="M1873 3763 c9 -2 23 -2 30 0 6 3 -1 5 -18 5 -16 0 -22 -2 -12 -5z"/>
<path d="M900 3739 l-25 -21 28 16 c15 9 33 14 39 10 7 -4 8 -3 4 4 -10 16
-17 15 -46 -9z"/>
<path d="M961 3752 c-1 -8 9 -16 21 -20 19 -5 17 -7 -17 -18 -25 -9 -29 -12
-11 -8 26 5 28 3 16 -11 -26 -31 0 -26 29 6 39 42 39 52 1 47 -16 -2 -32 0
-34 6 -2 6 -5 5 -5 -2z"/>
<path d="M2135 3740 c3 -5 8 -10 11 -10 2 0 4 5 4 10 0 6 -5 10 -11 10 -5 0
-7 -4 -4 -10z"/>
<path d="M1378 3733 c7 -3 16 -2 19 1 4 3 -2 6 -13 5 -11 0 -14 -3 -6 -6z"/>
<path d="M2007 3729 c7 -7 15 -10 18 -7 3 3 -2 9 -12 12 -14 6 -15 5 -6 -5z"/>
<path d="M893 3703 c-10 -10 -13 -14 -6 -10 6 5 16 6 21 3 5 -3 9 1 9 9 0 19
-1 19 -24 -2z"/>
<path d="M2035 3700 c3 -5 8 -10 11 -10 2 0 4 5 4 10 0 6 -5 10 -11 10 -5 0
-7 -4 -4 -10z"/>
<path d="M925 3680 c-3 -6 1 -7 9 -4 18 7 21 14 7 14 -6 0 -13 -4 -16 -10z"/>
<path d="M2098 3683 c7 -3 16 -2 19 1 4 3 -2 6 -13 5 -11 0 -14 -3 -6 -6z"/>
<path d="M2044 3671 c4 -6 16 -16 28 -22 15 -8 18 -8 14 0 -4 6 -16 16 -28 22
-15 8 -18 8 -14 0z"/>
<path d="M922 3647 c-14 -16 -6 -27 20 -27 13 0 18 6 16 17 -4 22 -22 27 -36
10z m28 -5 c0 -5 -7 -9 -15 -9 -8 0 -12 4 -9 9 3 4 9 8 15 8 5 0 9 -4 9 -8z"/>
<path d="M2066 3611 c-10 -16 1 -30 22 -26 9 1 23 -3 31 -9 12 -9 12 -8 1 11
-8 12 -18 19 -23 16 -5 -3 -13 0 -17 7 -5 9 -9 9 -14 1z"/>
<path d="M933 3605 c4 -5 -3 -20 -15 -34 -13 -14 -15 -20 -6 -12 23 17 43 5
23 -15 -18 -18 -18 -24 -4 -44 9 -12 10 -12 5 4 -4 10 -1 25 6 33 16 19 20 45
5 36 -6 -4 -8 0 -4 10 3 9 1 19 -6 23 -7 4 -9 3 -4 -1z"/>
<path d="M870 3559 c-6 -11 -10 -25 -8 -30 2 -5 8 4 15 21 13 34 9 40 -7 9z"/>
<path d="M2070 3539 c6 -10 13 -19 16 -19 3 0 2 5 -1 10 -3 6 -1 10 6 10 16 0
3 13 -16 16 -12 2 -12 -2 -5 -17z"/>
<path d="M2116 3537 c3 -10 9 -15 12 -12 3 3 0 11 -7 18 -10 9 -11 8 -5 -6z"/>
<path d="M900 3511 c0 -7 -4 -9 -10 -6 -12 8 -13 -15 -1 -34 6 -9 11 -10 15
-2 4 6 2 11 -5 11 -8 0 -8 4 1 15 7 9 10 18 6 22 -3 3 -6 1 -6 -6z"/>
<path d="M2127 3503 c-10 -9 -9 -33 1 -33 4 0 8 9 9 20 2 21 0 24 -10 13z"/>
<path d="M921 3442 c1 -28 3 -31 6 -12 3 14 9 28 15 31 5 4 3 9 -6 12 -13 5
-16 -1 -15 -31z"/>
<path d="M2030 3476 c0 -9 32 -36 41 -36 21 0 3 33 -18 36 -13 2 -23 2 -23 0z"/>
<path d="M2110 3433 c0 -30 9 -27 15 6 2 11 0 21 -6 21 -5 0 -9 -12 -9 -27z"/>
<path d="M911 3384 c0 -11 3 -14 6 -6 3 7 2 16 -1 19 -3 4 -6 -2 -5 -13z"/>
<path d="M2095 3380 c3 -5 8 -10 11 -10 2 0 4 5 4 10 0 6 -5 10 -11 10 -5 0
-7 -4 -4 -10z"/>
<path d="M1848 3344 c-4 -3 -30 -7 -60 -9 -72 -4 -107 -14 -129 -36 -24 -24
-26 -47 -3 -28 9 7 33 14 53 16 20 1 52 5 72 8 26 5 40 3 51 -9 14 -14 18 -14
28 -1 11 13 8 15 -16 15 -27 1 -28 2 -11 15 16 11 21 11 36 -3 10 -9 16 -20
14 -24 -4 -7 5 -10 23 -7 4 0 11 -5 16 -13 8 -10 9 -10 5 2 -2 8 -10 14 -16
13 -6 -2 -11 3 -11 11 0 7 -7 19 -15 26 -8 7 -12 16 -9 21 6 10 -19 13 -28 3z
m-73 -34 c-3 -5 -12 -10 -18 -10 -7 0 -6 4 3 10 19 12 23 12 15 0z"/>
<path d="M1902 3338 c-7 -9 -6 -17 3 -25 17 -16 28 -4 12 15 -10 13 -9 14 10
8 12 -4 24 -2 28 4 9 15 -40 13 -53 -2z"/>
<path d="M1615 3319 c-4 -11 -4 -23 -1 -26 3 -4 6 -1 6 6 0 7 4 10 9 7 5 -4 7
3 4 14 -7 25 -10 25 -18 -1z"/>
<path d="M1645 3330 c-3 -5 -1 -10 4 -10 6 0 11 5 11 10 0 6 -2 10 -4 10 -3 0
-8 -4 -11 -10z"/>
<path d="M1688 3333 c7 -3 16 -2 19 1 4 3 -2 6 -13 5 -11 0 -14 -3 -6 -6z"/>
<path d="M1115 3320 c-3 -5 -1 -10 4 -10 6 0 11 5 11 10 0 6 -2 10 -4 10 -3 0
-8 -4 -11 -10z"/>
<path d="M1945 3312 c6 -4 10 -16 10 -27 -1 -26 26 -76 37 -69 4 3 1 12 -7 20
-19 19 -19 33 0 40 22 9 18 19 -10 32 -29 13 -46 16 -30 4z"/>
<path d="M1293 3299 c1 -6 -4 -14 -12 -17 -8 -3 -11 0 -7 6 4 8 -22 11 -84 11
-72 0 -90 -3 -90 -14 0 -8 5 -15 11 -15 5 0 7 5 4 10 -8 13 53 12 80 -1 16 -8
14 -8 -11 -5 -17 3 -39 0 -48 -7 -13 -10 -5 -12 46 -14 39 -2 65 2 69 9 6 9
11 8 23 -1 9 -8 31 -14 49 -15 17 -1 38 -5 46 -10 10 -7 12 -6 6 4 -6 10 -4
12 8 7 10 -3 17 -2 17 3 0 6 -9 10 -20 10 -11 0 -20 4 -20 9 0 5 -7 12 -16 15
-12 4 -15 2 -10 -9 4 -13 2 -14 -14 -5 -11 6 -20 13 -20 16 0 3 6 2 13 -2 8
-5 8 -2 -2 9 -16 20 -22 22 -18 6z"/>
<path d="M1052 3281 c-7 -4 -12 -14 -10 -21 2 -8 -3 -15 -9 -16 -26 -3 -27 -6
-8 -14 20 -9 20 -9 0 -9 -16 -1 -17 -3 -5 -11 12 -8 12 -10 -3 -16 -9 -3 -14
-10 -11 -15 6 -11 35 -12 32 -1 -5 25 38 76 56 65 5 -4 6 -1 2 5 -4 6 -13 9
-21 5 -8 -3 -15 0 -15 6 0 6 7 11 15 11 8 0 15 5 15 10 0 12 -20 13 -38 1z"/>
<path d="M1409 3284 c6 -3 8 -11 5 -19 -3 -7 -1 -16 5 -20 7 -4 10 2 8 16 -2
13 -9 24 -16 25 -6 1 -7 0 -2 -2z"/>
<path d="M1590 3259 c-8 -5 -10 -9 -5 -9 6 0 3 -5 -5 -10 -8 -5 -10 -10 -5
-10 6 1 18 7 28 14 21 16 9 29 -13 15z"/>
<path d="M1654 3194 c-41 -37 -33 -36 25 3 54 36 145 28 213 -19 34 -24 48
-23 17 1 -49 38 -88 51 -152 51 -59 0 -67 -3 -103 -36z"/>
<path d="M1165 3201 c-43 -22 -91 -59 -83 -66 2 -2 20 8 39 24 69 57 175 67
238 21 18 -12 34 -20 37 -17 3 3 -10 15 -28 28 -46 33 -147 38 -203 10z"/>
<path d="M1195 3184 c-20 -6 -45 -20 -55 -29 -20 -18 -16 -49 6 -41 7 3 16 0
20 -6 4 -7 3 -8 -4 -4 -7 4 -12 3 -12 -2 0 -5 18 -14 40 -20 31 -8 40 -7 40 3
0 8 -10 11 -27 8 -21 -2 -23 -1 -10 5 16 7 13 10 -17 21 l-35 14 24 19 c30 23
45 23 45 -2 0 -29 43 -54 69 -40 21 11 25 20 21 53 -1 15 2 17 17 9 24 -13 59
-52 47 -53 -34 -3 -60 -12 -92 -34 l-37 -26 35 5 c19 2 44 8 54 12 19 7 19 8
0 15 -14 6 -9 8 19 8 30 1 37 5 37 20 0 22 -53 70 -78 73 -57 5 -74 4 -107 -8z
m55 -24 c0 -5 -7 -10 -15 -10 -8 0 -15 5 -15 10 0 6 7 10 15 10 8 0 15 -4 15
-10z m40 0 c0 -5 -4 -10 -10 -10 -5 0 -10 5 -10 10 0 6 5 10 10 10 6 0 10 -4
10 -10z"/>
<path d="M1510 3196 c0 -2 7 -7 16 -10 8 -3 12 -2 9 4 -6 10 -25 14 -25 6z"/>
<path d="M1683 3181 c-29 -18 -51 -56 -39 -68 3 -3 27 -7 53 -9 35 -3 43 -2
28 5 -11 5 -30 10 -42 10 -31 1 -29 12 7 46 l30 29 0 -26 c0 -29 23 -58 46
-58 21 0 56 39 50 56 -7 19 14 17 42 -4 l24 -18 -42 -19 c-29 -13 -37 -21 -28
-27 9 -6 7 -8 -7 -7 -45 3 -118 -1 -112 -8 10 -10 109 -4 139 8 15 6 25 16 21
22 -3 6 -1 7 5 3 6 -4 20 2 31 13 23 23 16 31 -42 56 -51 21 -125 19 -164 -4z
m72 -11 c3 -5 -1 -10 -10 -10 -9 0 -13 5 -10 10 3 6 8 10 10 10 2 0 7 -4 10
-10z m35 0 c0 -5 -5 -10 -11 -10 -5 0 -7 5 -4 10 3 6 8 10 11 10 2 0 4 -4 4
-10z"/>
<path d="M2140 3140 c-6 -11 -8 -20 -6 -20 3 0 10 9 16 20 6 11 8 20 6 20 -3
0 -10 -9 -16 -20z"/>
<path d="M1565 2960 c3 -5 8 -10 11 -10 2 0 4 5 4 10 0 6 -5 10 -11 10 -5 0
-7 -4 -4 -10z"/>
<path d="M1580 2931 c0 -5 5 -13 10 -16 6 -3 10 -2 10 4 0 5 -4 13 -10 16 -5
3 -10 2 -10 -4z"/>
<path d="M1354 2916 c-10 -8 -16 -18 -11 -22 4 -4 7 -2 7 4 0 7 6 12 14 12 8
0 18 5 21 10 9 15 -8 12 -31 -4z"/>
<path d="M1644 2917 c-4 -7 -4 -9 0 -5 10 9 46 -28 46 -47 0 -8 4 -15 9 -15
20 0 -9 64 -33 73 -9 4 -18 1 -22 -6z"/>
<path d="M1314 2875 c-3 -8 -4 -20 -2 -27 3 -7 7 -1 10 15 6 29 1 36 -8 12z"/>
<path d="M1320 2822 c0 -18 53 -33 94 -27 32 5 45 3 55 -9 8 -9 27 -16 43 -16
36 0 36 -28 -1 -41 -20 -8 -23 -7 -18 11 5 21 -1 24 -27 14 -23 -9 -20 -23 8
-33 28 -11 106 -2 106 11 0 6 -6 8 -14 5 -9 -4 -16 3 -19 21 -7 38 -2 42 56
42 71 0 95 17 26 19 -38 0 -62 -5 -87 -21 -20 -12 -33 -17 -29 -11 7 12 -50
24 -123 27 -25 1 -51 5 -57 9 -7 5 -13 4 -13 -1z"/>
<path d="M1570 2780 c-13 -9 -13 -10 0 -10 8 0 22 5 30 10 13 9 13 10 0 10 -8
0 -22 -5 -30 -10z"/>
<path d="M1326 2750 c-15 -19 -23 -37 -19 -47 5 -13 9 -10 17 14 6 18 15 35
20 40 5 5 7 1 3 -9 -3 -10 0 -19 10 -22 11 -5 13 -2 8 11 -4 10 -8 24 -8 31
-1 17 -2 16 -31 -18z"/>
<path d="M1400 2769 c0 -4 10 -14 23 -20 12 -6 19 -8 15 -4 -4 5 -4 13 1 19 6
7 1 11 -15 12 -13 1 -24 -2 -24 -7z"/>
<path d="M1624 2768 c-5 -8 -3 -9 16 -12 6 0 15 -7 19 -15 6 -9 10 -10 16 -2
5 9 11 9 23 -1 12 -9 11 -6 -2 10 -20 23 -32 30 -21 12 3 -5 1 -10 -4 -10 -6
0 -11 6 -11 13 0 15 -28 19 -36 5z"/>
<path d="M1375 2750 c3 -5 11 -10 16 -10 6 0 7 5 4 10 -3 6 -11 10 -16 10 -6
0 -7 -4 -4 -10z"/>
<path d="M1416 2727 c3 -10 9 -15 12 -12 3 3 0 11 -7 18 -10 9 -11 8 -5 -6z"/>
<path d="M1612 2731 c-11 -7 -11 -9 2 -14 10 -4 16 -1 16 8 0 17 -1 17 -18 6z"/>
<path d="M1724 2728 c-3 -4 0 -8 6 -8 6 0 9 -4 5 -9 -3 -5 -1 -13 5 -16 6 -4
10 -3 9 2 -3 20 2 34 11 28 6 -3 10 -2 10 4 0 11 -39 10 -46 -1z"/>
<path d="M1246 2705 c-3 -10 -14 -14 -30 -11 -19 3 -25 -1 -28 -18 -3 -15 2
-27 12 -34 19 -12 34 -5 43 20 3 10 12 15 20 12 15 -5 31 22 21 37 -8 14 -31
11 -38 -6z m34 -5 c0 -5 -5 -10 -11 -10 -5 0 -7 5 -4 10 3 6 8 10 11 10 2 0 4
-4 4 -10z m-42 -29 c-7 -11 -16 -17 -20 -15 -14 9 -9 22 10 27 9 3 18 5 20 6
1 0 -3 -8 -10 -18z"/>
<path d="M1330 2710 c0 -5 5 -10 10 -10 6 0 10 5 10 10 0 6 -4 10 -10 10 -5 0
-10 -4 -10 -10z"/>
<path d="M1775 2711 c-3 -7 2 -11 13 -11 16 0 19 -5 14 -22 -3 -14 -1 -19 6
-14 8 5 10 2 6 -8 -3 -9 -10 -16 -15 -16 -5 0 -9 -9 -9 -20 0 -11 5 -20 10
-20 6 0 10 9 10 20 0 11 5 20 10 20 6 0 10 16 8 35 -1 19 -5 35 -9 35 -4 0
-14 3 -22 6 -8 3 -18 1 -22 -5z"/>
<path d="M1980 2690 c0 -5 5 -10 11 -10 5 0 7 5 4 10 -3 6 -8 10 -11 10 -2 0
-4 -4 -4 -10z"/>
<path d="M1768 2683 c7 -3 16 -2 19 1 4 3 -2 6 -13 5 -11 0 -14 -3 -6 -6z"/>
<path d="M1677 2663 c-4 -3 -80 -6 -169 -6 -129 0 -176 -4 -223 -19 -33 -10
-68 -15 -77 -12 -10 3 -18 0 -18 -6 0 -7 18 -10 48 -9 26 1 55 -2 65 -6 12 -5
17 -3 15 5 -5 21 44 26 225 28 l167 2 -11 -22 -11 -21 30 22 c18 12 38 19 49
15 17 -5 17 -5 1 8 -9 8 -33 13 -53 12 -21 -2 -33 1 -30 6 7 11 2 13 -8 3z"/>
<path d="M1953 2641 c0 -11 5 -18 9 -15 4 3 5 11 1 19 -7 21 -12 19 -10 -4z"/>
<path d="M1670 2612 c0 -4 -16 -14 -35 -21 -19 -7 -35 -16 -35 -21 0 -5 10 -5
23 0 12 6 30 13 40 16 15 6 25 34 12 34 -3 0 -5 -4 -5 -8z"/>
<path d="M1334 2591 c3 -5 21 -14 38 -20 l33 -11 -25 20 c-25 20 -56 27 -46
11z"/>
<path d="M1730 2590 c-9 -6 -10 -10 -3 -10 6 0 15 5 18 10 8 12 4 12 -15 0z"/>
<path d="M1680 2561 c0 -16 -53 -23 -167 -21 -76 1 -113 -3 -113 -10 0 -7 -7
-7 -22 1 -20 11 -21 10 -11 -3 7 -8 10 -17 7 -21 -3 -3 4 -3 17 0 15 4 27 0
37 -13 14 -18 15 -18 8 0 -5 16 -4 17 9 6 12 -10 15 -10 15 0 0 10 3 10 15 0
18 -15 75 -20 75 -7 0 5 6 5 13 1 9 -6 9 -5 0 7 -10 13 -7 14 21 11 18 -2 47
3 63 11 34 18 62 47 44 47 -6 0 -11 -4 -11 -9z"/>
<path d="M1070 2530 c0 -5 5 -10 11 -10 5 0 7 5 4 10 -3 6 -8 10 -11 10 -2 0
-4 -4 -4 -10z"/>
<path d="M1796 2491 c-3 -5 0 -11 7 -14 8 -3 14 1 14 9 0 16 -13 19 -21 5z"/>
<path d="M1877 2451 c-4 -17 -3 -21 5 -13 5 5 8 16 6 23 -3 8 -7 3 -11 -10z"/>
<path d="M1900 2454 c0 -8 5 -12 10 -9 6 4 8 11 5 16 -9 14 -15 11 -15 -7z"/>
<path d="M1196 2441 c-4 -5 3 -7 14 -4 23 6 26 13 6 13 -8 0 -17 -4 -20 -9z"/>
<path d="M1800 2426 c0 -2 7 -9 15 -16 9 -7 15 -8 15 -2 0 5 -7 12 -15 16 -8
3 -15 4 -15 2z"/>
<path d="M1850 2399 c0 -11 4 -18 10 -14 5 3 7 12 3 20 -7 21 -13 19 -13 -6z"/>
<path d="M1200 2400 c0 -6 -4 -9 -9 -5 -5 3 -12 1 -15 -4 -3 -5 0 -11 7 -14
16 -6 41 20 27 28 -6 3 -10 1 -10 -5z"/>
<path d="M1222 2383 c-12 -15 -22 -32 -22 -38 0 -5 5 -2 11 8 5 9 15 17 20 17
6 0 7 -4 4 -10 -3 -5 0 -19 8 -31 10 -13 17 -16 22 -10 3 6 0 14 -8 16 -8 4
-12 18 -11 40 2 19 2 35 0 35 -1 0 -12 -12 -24 -27z"/>
<path d="M1655 2400 c3 -5 8 -10 11 -10 2 0 4 5 4 10 0 6 -5 10 -11 10 -5 0
-7 -4 -4 -10z"/>
<path d="M1759 2410 c-5 -32 -7 -52 -3 -42 3 6 10 10 15 6 5 -3 9 -2 9 3 0 10
-19 40 -21 33z"/>
<path d="M1370 2370 c-13 -8 -12 -10 3 -10 9 0 17 5 17 10 0 12 -1 12 -20 0z"/>
<path d="M1510 2370 c0 -5 5 -10 10 -10 6 0 10 5 10 10 0 6 -4 10 -10 10 -5 0
-10 -4 -10 -10z"/>
<path d="M1726 2364 c-8 -21 -8 -39 1 -30 8 7 15 46 9 46 -2 0 -7 -7 -10 -16z"/>
<path d="M1631 2358 c-1 -26 14 -29 29 -5 12 20 12 21 -2 9 -13 -10 -17 -10
-21 0 -4 9 -6 7 -6 -4z"/>
<path d="M1794 2355 c-4 -8 -11 -12 -17 -8 -6 3 -7 1 -3 -5 10 -16 14 -15 26
8 6 11 8 20 5 20 -3 0 -8 -7 -11 -15z"/>
<path d="M1279 2331 c11 -15 17 -32 13 -37 -4 -4 2 -2 12 6 18 14 19 13 13 -3
-4 -11 -3 -16 3 -12 6 3 10 0 10 -7 1 -19 41 -45 78 -51 17 -3 35 -7 39 -10 5
-3 15 -1 23 5 12 8 12 9 -2 4 -10 -3 -18 -1 -18 3 0 5 -8 8 -17 7 -10 -2 -28
1 -41 7 -21 10 -21 12 -6 36 l15 26 -19 -22 c-13 -15 -23 -18 -33 -12 -11 7
-11 9 -1 9 7 0 10 5 7 10 -4 6 -11 8 -16 5 -15 -10 -10 12 6 25 14 12 20 7 16
-14 -1 -5 5 -4 13 4 20 16 21 34 1 26 -8 -3 -21 1 -29 9 -19 19 -32 19 -16 0
6 -8 9 -18 6 -24 -8 -13 -46 -2 -46 14 0 7 -7 16 -16 19 -12 4 -11 -1 5 -23z"/>
<path d="M1441 2351 c-7 -5 -11 -13 -7 -19 3 -6 2 -13 -4 -17 -5 -3 -10 -12
-10 -18 0 -7 5 -4 11 6 5 9 18 17 27 18 14 0 14 2 -3 8 -19 8 -19 8 0 19 11 6
16 11 10 12 -5 0 -16 -4 -24 -9z"/>
<path d="M1568 2335 c-24 -32 -23 -40 3 -16 12 11 20 24 18 29 -2 6 -12 0 -21
-13z"/>
<path d="M1403 2331 c0 -11 5 -18 9 -15 4 3 5 11 1 19 -7 21 -12 19 -10 -4z"/>
<path d="M1670 2324 c0 -8 6 -11 15 -8 8 4 15 9 15 13 0 4 -7 8 -15 8 -8 0
-15 -6 -15 -13z"/>
<path d="M1754 2327 c3 -10 6 -24 6 -30 0 -8 4 -7 12 1 7 7 20 12 30 12 10 0
18 4 18 10 0 6 -9 6 -25 0 -19 -7 -27 -6 -35 8 -11 16 -11 15 -6 -1z"/>
<path d="M1510 2317 c0 -9 5 -17 11 -17 5 0 7 -5 3 -12 -4 -7 -3 -8 5 -4 9 6
9 12 -1 24 -7 10 -14 19 -15 21 -2 2 -3 -3 -3 -12z"/>
<path d="M1615 2319 c-4 -6 -5 -12 -2 -15 2 -3 7 2 10 11 7 17 1 20 -8 4z"/>
<path d="M1726 2303 c-6 -14 -5 -15 5 -6 7 7 10 15 7 18 -3 3 -9 -2 -12 -12z"/>
<path d="M1445 2300 c-3 -5 1 -10 9 -10 9 0 16 5 16 10 0 6 -4 10 -9 10 -6 0
-13 -4 -16 -10z"/>
<path d="M1485 2300 c3 -5 8 -10 11 -10 2 0 4 5 4 10 0 6 -5 10 -11 10 -5 0
-7 -4 -4 -10z"/>
<path d="M1681 2291 c-17 -11 -8 -27 19 -34 12 -3 20 0 20 8 0 19 -24 35 -39
26z"/>
<path d="M1787 2293 c-4 -3 -7 -13 -6 -22 0 -12 3 -11 9 4 5 11 9 14 9 7 1 -7
6 -10 11 -7 6 4 8 11 5 16 -7 11 -19 12 -28 2z"/>
<path d="M1558 2276 c-10 -7 -18 -19 -18 -27 0 -12 2 -12 9 0 5 8 14 10 22 6
9 -6 11 -4 6 8 -3 9 -1 18 6 21 7 2 8 5 2 5 -5 0 -18 -6 -27 -13z"/>
<path d="M1610 2275 c-8 -10 -8 -15 0 -20 8 -5 8 -11 -1 -21 -10 -12 -9 -13 5
-8 10 4 15 12 13 18 -4 10 16 37 24 33 2 -1 3 0 1 2 -6 11 -32 8 -42 -4z"/>
<path d="M1397 2267 c-3 -8 3 -13 15 -14 10 -1 18 3 16 9 -6 18 -25 21 -31 5z"/>
<path d="M1486 2271 c-4 -7 -5 -15 -2 -18 9 -9 19 4 14 18 -4 11 -6 11 -12 0z"/>
<path d="M1455 2260 c-3 -5 -1 -10 4 -10 6 0 11 5 11 10 0 6 -2 10 -4 10 -3 0
-8 -4 -11 -10z"/>
<path d="M1646 2252 c-4 -7 -5 -12 -2 -12 2 0 11 -3 20 -6 9 -3 16 -1 16 6 0
6 -4 9 -9 6 -5 -4 -11 -1 -13 6 -3 9 -6 9 -12 0z"/>
<path d="M1490 2233 c0 -4 5 -15 10 -23 8 -13 10 -13 10 2 0 9 -4 20 -10 23
-5 3 -10 3 -10 -2z"/>
<path d="M1537 2218 l-22 -19 25 13 c14 7 28 12 32 13 15 0 17 12 2 12 -9 0
-26 -9 -37 -19z"/>
<path d="M1697 2233 c-4 -3 -7 -11 -7 -17 0 -6 5 -5 12 2 6 6 9 14 7 17 -3 3
-9 2 -12 -2z"/>
<path d="M1492 1977 c7 -8 29 -14 48 -14 27 -1 30 1 15 7 -11 4 -25 5 -31 3
-7 -2 -15 0 -19 6 -3 6 -11 11 -16 11 -6 0 -4 -6 3 -13z"/>
<path d="M1652 1844 c-7 -8 -8 -14 -3 -14 10 0 25 19 20 25 -2 1 -10 -3 -17
-11z"/>
<path d="M1405 1840 c3 -5 11 -10 16 -10 6 0 7 5 4 10 -3 6 -11 10 -16 10 -6
0 -7 -4 -4 -10z"/>
<path d="M1610 1831 c-8 -6 -18 -7 -24 -4 -5 3 -6 1 -3 -5 8 -12 47 -4 47 9 0
11 -1 11 -20 0z"/>
<path d="M870 3136 c0 -2 8 -10 18 -17 15 -13 16 -12 3 4 -13 16 -21 21 -21
13z"/>
<path d="M861 3104 c0 -11 3 -14 6 -6 3 7 2 16 -1 19 -3 4 -6 -2 -5 -13z"/>
<path d="M852 3060 c0 -14 2 -19 5 -12 2 6 2 18 0 25 -3 6 -5 1 -5 -13z"/>
<path d="M866 2963 c-13 -13 -5 -35 20 -58 35 -33 46 -32 32 3 -14 32 -43 63
-52 55z"/>
<path d="M906 2827 c3 -10 9 -15 12 -12 3 3 0 11 -7 18 -10 9 -11 8 -5 -6z"/>
<path d="M2140 3920 c0 -5 5 -10 11 -10 5 0 7 5 4 10 -3 6 -8 10 -11 10 -2 0
-4 -4 -4 -10z"/>
<path d="M2011 2240 c14 -31 19 -36 19 -24 0 6 -7 19 -16 30 -14 18 -14 18 -3
-6z"/>
<path d="M1060 2209 c-15 -36 -54 -82 -63 -73 -11 12 -277 -135 -277 -153 0
-3 11 2 24 11 67 43 226 129 226 121 0 -4 7 -2 15 5 8 7 15 9 15 4 0 -4 12 3
26 17 24 23 59 88 50 96 -2 2 -9 -11 -16 -28z"/>
<path d="M2030 2190 c0 -25 27 -56 59 -70 18 -7 28 -17 24 -24 -3 -6 -3 -8 1
-5 12 11 107 -30 176 -75 101 -66 199 -126 206 -126 3 0 38 -21 77 -47 104
-69 101 -67 92 -53 -5 8 -3 11 6 8 8 -3 14 -11 14 -19 0 -8 9 -13 21 -12 12 1
66 -22 120 -52 54 -30 103 -55 107 -55 5 0 5 -5 1 -12 -4 -7 -3 -8 4 -4 6 4
23 -1 37 -10 14 -9 25 -14 25 -10 0 10 -70 50 -335 190 -142 76 -293 161 -335
189 -41 28 -119 72 -172 99 -67 33 -102 57 -112 76 -9 15 -15 20 -16 12z"/>
<path d="M944 2045 c-4 -8 -10 -12 -15 -9 -5 3 -9 1 -9 -5 0 -22 18 -19 28 4
7 14 9 25 6 25 -2 0 -7 -7 -10 -15z"/>
<path d="M2138 2048 c-6 -16 22 -88 34 -88 4 0 0 17 -10 38 -11 20 -17 43 -15
50 3 6 2 12 0 12 -3 0 -7 -6 -9 -12z"/>
<path d="M906 1995 c-3 -8 -1 -15 4 -15 6 0 10 7 10 15 0 8 -2 15 -4 15 -2 0
-6 -7 -10 -15z"/>
<path d="M1090 1995 c0 -8 4 -15 10 -15 5 0 7 7 4 15 -4 8 -8 15 -10 15 -2 0
-4 -7 -4 -15z"/>
<path d="M588 1907 c-98 -61 -160 -104 -123 -85 35 17 237 142 241 149 8 14 7
13 -118 -64z"/>
<path d="M862 1905 c-17 -36 -30 -65 -28 -65 8 0 66 114 64 122 -2 5 -18 -21
-36 -57z"/>
<path d="M2170 1939 c0 -5 5 -7 10 -4 6 3 10 8 10 11 0 2 -4 4 -10 4 -5 0 -10
-5 -10 -11z"/>
<path d="M2193 1931 c-9 -15 -5 -34 24 -102 19 -46 39 -95 44 -108 5 -13 12
-21 15 -19 2 3 0 16 -5 29 -13 32 -23 62 -27 74 -1 6 -11 35 -22 65 -10 30
-17 61 -15 68 7 18 0 15 -14 -7z"/>
<path d="M799 1919 l-24 -20 28 17 c15 9 27 18 27 20 0 8 -8 4 -31 -17z"/>
<path d="M671 1804 c-25 -13 -47 -27 -50 -30 -9 -9 53 17 66 27 7 6 16 8 21 5
5 -3 9 1 9 9 0 8 -1 15 -1 14 -1 0 -21 -11 -45 -25z"/>
<path d="M303 1750 c-79 -38 -143 -70 -143 -72 0 -2 9 -4 19 -4 11 0 17 4 14
9 -3 5 0 7 8 5 8 -3 25 3 39 12 14 10 67 38 118 64 50 25 92 48 92 51 0 7 13
12 -147 -65z"/>
<path d="M1092 1760 c0 -14 2 -19 5 -12 2 6 2 18 0 25 -3 6 -5 1 -5 -13z"/>
<path d="M2471 1772 c-1 -14 27 -72 35 -72 2 0 -2 12 -9 28 -8 15 -17 34 -20
42 -4 10 -6 11 -6 2z"/>
<path d="M1921 1754 c0 -11 3 -14 6 -6 3 7 2 16 -1 19 -3 4 -6 -2 -5 -13z"/>
<path d="M2727 1739 c7 -7 15 -10 18 -7 3 3 -2 9 -12 12 -14 6 -15 5 -6 -5z"/>
<path d="M1091 1714 c0 -11 3 -14 6 -6 3 7 2 16 -1 19 -3 4 -6 -2 -5 -13z"/>
<path d="M695 1645 c-21 -41 -36 -77 -33 -80 2 -3 22 29 42 71 21 41 36 77 33
80 -2 3 -21 -29 -42 -71z"/>
<path d="M339 1693 c-13 -16 -12 -17 4 -4 9 7 17 15 17 17 0 8 -8 3 -21 -13z"/>
<path d="M1911 1694 c0 -11 3 -14 6 -6 3 7 2 16 -1 19 -3 4 -6 -2 -5 -13z"/>
<path d="M410 1670 c-6 -11 -8 -20 -6 -20 3 0 10 9 16 20 6 11 8 20 6 20 -3 0
-10 -9 -16 -20z"/>
<path d="M275 1670 c-3 -6 1 -7 9 -4 18 7 21 14 7 14 -6 0 -13 -4 -16 -10z"/>
<path d="M98 1641 c-55 -35 -88 -66 -88 -83 0 -6 6 -4 13 7 8 10 19 15 25 11
8 -4 12 0 12 11 0 10 19 30 45 46 39 25 53 37 42 37 -2 0 -24 -13 -49 -29z"/>
<path d="M299 1653 c-13 -16 -12 -17 4 -4 9 7 17 15 17 17 0 8 -8 3 -21 -13z"/>
<path d="M2520 1651 c0 -6 4 -13 10 -16 6 -3 7 1 4 9 -7 18 -14 21 -14 7z"/>
<path d="M226 1612 l-19 -27 24 22 c12 12 21 24 18 27 -2 2 -13 -8 -23 -22z"/>
<path d="M405 1630 c3 -5 8 -10 11 -10 2 0 4 5 4 10 0 6 -5 10 -11 10 -5 0 -7
-4 -4 -10z"/>
<path d="M1876 1596 c-16 -25 -36 -47 -45 -49 -14 -4 -14 -5 2 -6 9 0 27 10
39 24 12 14 30 25 40 25 11 0 16 4 13 10 -3 6 1 7 9 4 9 -3 14 -10 11 -14 -3
-4 4 -10 15 -13 11 -3 20 -1 20 5 0 5 7 2 16 -6 8 -9 21 -16 27 -16 8 0 7 3
-2 9 -26 16 5 19 64 6 87 -19 132 -38 127 -53 -2 -6 1 -12 7 -12 6 0 11 6 11
14 0 8 6 16 12 18 7 3 -19 14 -57 25 -96 29 -261 73 -272 73 -5 0 -22 -20 -37
-44z"/>
<path d="M1088 1605 c-9 -10 -243 -45 -308 -46 -51 -2 -53 -3 -25 -12 27 -9
114 -3 353 26 11 2 11 5 0 20 -8 10 -16 15 -20 12z"/>
<path d="M1291 1594 c0 -11 3 -14 6 -6 3 7 2 16 -1 19 -3 4 -6 -2 -5 -13z"/>
<path d="M1289 1542 c-3 -20 -2 -29 4 -23 5 5 7 19 5 32 -3 20 -5 19 -9 -9z"/>
<path d="M1330 1566 c0 -2 8 -10 18 -17 15 -13 16 -12 3 4 -13 16 -21 21 -21
13z"/>
<path d="M156 1544 c-5 -14 -4 -15 9 -4 17 14 19 20 6 20 -5 0 -12 -7 -15 -16z"/>
<path d="M1688 1533 c-22 -5 -24 -33 -3 -33 8 0 15 5 15 10 0 6 8 10 18 10 9
0 24 5 32 10 11 7 8 9 -15 9 -16 -1 -38 -3 -47 -6z"/>
<path d="M1770 1514 c0 -17 -4 -23 -12 -18 -7 4 -10 4 -6 -1 4 -4 3 -16 -3
-26 -7 -14 -6 -19 3 -19 7 1 22 21 34 45 20 43 20 45 3 45 -14 0 -19 -7 -19
-26z"/>
<path d="M1256 1478 c16 -13 32 -22 36 -21 3 1 28 -12 54 -30 33 -23 51 -43
56 -65 10 -37 27 -44 21 -8 -5 26 -41 62 -115 114 -54 37 -98 46 -52 10z"/>
<path d="M141 1444 c0 -11 3 -14 6 -6 3 7 2 16 -1 19 -3 4 -6 -2 -5 -13z"/>
<path d="M496 1443 c-6 -14 -5 -15 5 -6 7 7 10 15 7 18 -3 3 -9 -2 -12 -12z"/>
<path d="M12 1430 c0 -14 2 -19 5 -12 2 6 2 18 0 25 -3 6 -5 1 -5 -13z"/>
<path d="M61 1414 c0 -11 3 -14 6 -6 3 7 2 16 -1 19 -3 4 -6 -2 -5 -13z"/>
<path d="M1678 1393 c7 -3 16 -2 19 1 4 3 -2 6 -13 5 -11 0 -14 -3 -6 -6z"/>
<path d="M72 1370 c0 -14 2 -19 5 -12 2 6 2 18 0 25 -3 6 -5 1 -5 -13z"/>
<path d="M15 1302 c3 -35 16 -97 30 -138 26 -77 96 -237 101 -231 1 1 -22 64
-51 138 -30 75 -61 172 -70 215 l-15 79 5 -63z"/>
<path d="M281 1342 c-13 -25 -14 -32 -2 -32 9 0 23 41 16 48 -2 2 -8 -5 -14
-16z"/>
<path d="M160 1341 c0 -6 4 -13 10 -16 6 -3 7 1 4 9 -7 18 -14 21 -14 7z"/>
<path d="M1489 1348 c-4 -8 -6 -48 -3 -48 11 0 23 40 14 45 -5 3 -11 5 -11 3z"/>
<path d="M2844 1288 c-13 -55 -25 -144 -29 -218 -5 -68 -23 -203 -31 -223 -3
-9 -1 -17 4 -17 14 0 25 68 37 225 3 33 10 84 16 112 6 29 9 61 8 70 -1 10 1
31 6 46 4 15 5 30 2 33 -3 3 -9 -10 -13 -28z"/>
<path d="M1632 1290 c0 -14 2 -19 5 -12 2 6 2 18 0 25 -3 6 -5 1 -5 -13z"/>
<path d="M267 1281 c-4 -17 -3 -21 5 -13 5 5 8 16 6 23 -3 8 -7 3 -11 -10z"/>
<path d="M1452 1280 c0 -14 2 -19 5 -12 2 6 2 18 0 25 -3 6 -5 1 -5 -13z"/>
<path d="M285 1235 c-3 -26 -4 -49 -2 -51 3 -3 8 16 12 41 3 26 4 49 2 51 -3
3 -8 -16 -12 -41z"/>
<path d="M1483 1258 c-2 -5 -1 -8 4 -7 22 4 34 -2 27 -13 -5 -9 -3 -9 9 1 9 7
14 17 12 21 -7 11 -45 9 -52 -2z"/>
<path d="M2982 1243 c-1 -22 0 -24 8 -13 12 18 13 40 2 40 -4 0 -9 -12 -10
-27z"/>
<path d="M1626 1223 c-3 -21 -5 -83 -4 -138 l1 -100 7 135 c4 74 6 136 5 138
-1 1 -5 -14 -9 -35z"/>
<path d="M2590 1250 c0 -5 5 -10 11 -10 5 0 7 5 4 10 -3 6 -8 10 -11 10 -2 0
-4 -4 -4 -10z"/>
<path d="M256 1233 c-6 -14 -5 -15 5 -6 7 7 10 15 7 18 -3 3 -9 -2 -12 -12z"/>
<path d="M476 1232 c-3 -5 1 -9 9 -9 8 0 15 4 15 9 0 4 -4 8 -9 8 -6 0 -12 -4
-15 -8z"/>
<path d="M1558 1220 c17 -19 15 -40 -5 -64 -18 -21 -18 -21 5 -2 26 23 28 49
5 67 -15 11 -16 11 -5 -1z"/>
<path d="M440 1180 c-9 -6 -10 -10 -3 -10 6 0 15 5 18 10 8 12 4 12 -15 0z"/>
<path d="M1490 1175 c0 -8 9 -19 20 -25 11 -6 20 -8 20 -5 0 3 -9 14 -20 25
-15 15 -20 16 -20 5z"/>
<path d="M250 1162 c0 -6 5 -12 12 -14 8 -3 11 -21 10 -48 -4 -63 6 -45 12 21
2 29 2 48 -1 41 -4 -10 -8 -10 -19 -1 -9 7 -14 8 -14 1z"/>
<path d="M410 1151 c0 -6 4 -12 8 -15 5 -3 9 1 9 9 0 8 -4 15 -9 15 -4 0 -8
-4 -8 -9z"/>
<path d="M2947 1088 c-9 -29 -15 -54 -13 -56 2 -2 12 20 21 48 9 28 15 53 13
55 -2 3 -12 -19 -21 -47z"/>
<path d="M21 1114 c0 -11 3 -14 6 -6 3 7 2 16 -1 19 -3 4 -6 -2 -5 -13z"/>
<path d="M375 1090 c-16 -16 -25 -30 -21 -30 7 0 56 49 56 56 0 8 -8 3 -35
-26z"/>
<path d="M1410 1109 c0 -5 5 -7 10 -4 6 3 10 8 10 11 0 2 -4 4 -10 4 -5 0 -10
-5 -10 -11z"/>
<path d="M31 1085 c1 -19 18 -51 18 -35 0 8 -4 22 -9 30 -5 8 -9 11 -9 5z"/>
<path d="M337 1043 c-4 -3 -7 -11 -7 -17 0 -6 5 -5 12 2 6 6 9 14 7 17 -3 3
-9 2 -12 -2z"/>
<path d="M246 1002 l-19 -27 24 22 c12 12 21 24 18 27 -2 2 -13 -8 -23 -22z"/>
<path d="M1406 1015 c-9 -26 -7 -32 5 -12 6 10 9 21 6 23 -2 3 -7 -2 -11 -11z"/>
<path d="M192 989 c6 -16 12 -28 14 -26 5 5 -13 57 -20 57 -3 0 0 -14 6 -31z"/>
<path d="M310 999 c0 -5 5 -7 10 -4 6 3 10 8 10 11 0 2 -4 4 -10 4 -5 0 -10
-5 -10 -11z"/>
<path d="M2583 999 c-6 -6 -9 -18 -6 -27 5 -11 3 -13 -7 -7 -9 5 -11 4 -6 -3
11 -18 15 -15 27 14 11 30 8 39 -8 23z"/>
<path d="M66 980 c15 -55 100 -197 111 -186 3 2 -4 14 -15 26 -11 12 -38 58
-61 103 -23 45 -39 71 -35 57z"/>
<path d="M1622 960 c0 -14 2 -19 5 -12 2 6 2 18 0 25 -3 6 -5 1 -5 -13z"/>
<path d="M404 945 c-9 -14 -21 -22 -27 -18 -6 3 -7 1 -3 -5 11 -19 20 -14 39
18 22 36 14 40 -9 5z"/>
<path d="M1405 960 c3 -5 8 -10 11 -10 2 0 4 5 4 10 0 6 -5 10 -11 10 -5 0 -7
-4 -4 -10z"/>
<path d="M236 925 c-3 -8 -1 -15 4 -15 6 0 10 7 10 15 0 8 -2 15 -4 15 -2 0
-6 -7 -10 -15z"/>
<path d="M2845 885 c-17 -30 -37 -57 -45 -60 -19 -6 -35 -42 -59 -135 -11 -41
-36 -111 -56 -155 l-37 -80 6 55 c3 30 6 63 6 72 0 11 5 15 14 12 26 -10 29
63 7 155 -11 46 -17 89 -14 94 3 6 1 7 -5 3 -8 -5 -12 0 -12 13 0 11 -4 22 -9
26 -12 6 -6 -24 18 -105 6 -19 11 -47 11 -62 0 -16 6 -28 13 -28 6 0 4 -5 -6
-11 -16 -9 -16 -12 -2 -26 15 -14 14 -17 -6 -31 -17 -12 -23 -12 -30 -1 -4 8
-3 19 4 28 10 11 9 13 -3 9 -21 -7 -25 -39 -6 -50 9 -5 13 -14 10 -20 -4 -6
-11 -49 -15 -96 -7 -63 -15 -96 -32 -122 -26 -38 -34 -71 -48 -195 -5 -44 -11
-98 -14 -120 -4 -35 -4 -37 6 -17 7 12 16 22 20 22 12 0 -1 -33 -19 -47 -14
-11 -12 -13 11 -13 l26 0 -2 113 c-3 151 6 194 54 266 22 33 42 73 45 88 3 15
18 57 34 93 16 36 32 81 35 100 4 19 19 51 34 70 37 48 49 72 17 35 -19 -22
-25 -26 -26 -13 0 9 5 20 11 24 6 3 28 33 48 65 21 33 39 57 42 55 2 -2 5 7 5
20 1 13 1 24 0 24 -1 0 -15 -25 -31 -55z"/>
<path d="M150 918 c0 -4 9 -22 20 -40 22 -37 26 -53 8 -42 -7 4 -8 3 -4 -5 4
-6 11 -9 16 -6 5 3 16 -8 25 -25 9 -17 45 -61 81 -97 44 -47 64 -75 64 -92 0
-14 5 -33 10 -41 8 -12 10 -12 10 5 0 41 -19 83 -51 116 -25 25 -35 45 -37 74
-4 43 -51 154 -51 120 0 -11 6 -31 14 -45 8 -14 14 -39 15 -55 0 -17 5 -36 12
-43 7 -7 8 -12 3 -12 -10 0 -46 50 -104 145 -17 28 -31 47 -31 43z"/>
<path d="M0 894 c0 -25 134 -209 199 -274 53 -53 64 -53 16 0 -73 79 -117 136
-169 215 -25 39 -46 65 -46 59z"/>
<path d="M2987 878 c-3 -13 -9 -34 -13 -48 -5 -17 -4 -22 4 -15 6 6 14 27 17
48 8 40 1 52 -8 15z"/>
<path d="M1613 840 c0 -30 2 -43 4 -27 2 15 2 39 0 55 -2 15 -4 2 -4 -28z"/>
<path d="M330 869 c0 -5 5 -7 10 -4 6 3 10 8 10 11 0 2 -4 4 -10 4 -5 0 -10
-5 -10 -11z"/>
<path d="M2882 830 c-13 -24 -17 -38 -9 -34 11 4 40 64 34 70 -1 2 -12 -15
-25 -36z"/>
<path d="M430 841 c0 -5 5 -13 10 -16 6 -3 10 -2 10 4 0 5 -4 13 -10 16 -5 3
-10 2 -10 -4z"/>
<path d="M1403 815 c0 -22 2 -30 4 -17 2 12 2 30 0 40 -3 9 -5 -1 -4 -23z"/>
<path d="M616 801 c-4 -7 -5 -15 -2 -18 9 -9 19 4 14 18 -4 11 -6 11 -12 0z"/>
<path d="M2940 763 c-11 -21 -30 -54 -41 -73 l-21 -35 21 19 c11 11 21 24 21
29 0 6 6 18 13 26 15 18 39 71 32 71 -3 0 -14 -17 -25 -37z"/>
<path d="M190 774 c0 -5 26 -34 57 -64 32 -30 46 -41 31 -25 -69 79 -88 99
-88 89z"/>
<path d="M585 770 c3 -5 8 -10 11 -10 2 0 4 5 4 10 0 6 -5 10 -11 10 -5 0 -7
-4 -4 -10z"/>
<path d="M1606 765 c-3 -9 -5 -35 -5 -58 1 -40 2 -40 9 13 9 57 7 73 -4 45z"/>
<path d="M2835 770 c-3 -5 -1 -10 4 -10 6 0 11 5 11 10 0 6 -2 10 -4 10 -3 0
-8 -4 -11 -10z"/>
<path d="M1401 744 c0 -11 3 -14 6 -6 3 7 2 16 -1 19 -3 4 -6 -2 -5 -13z"/>
<path d="M568 743 c7 -3 16 -2 19 1 4 3 -2 6 -13 5 -11 0 -14 -3 -6 -6z"/>
<path d="M416 711 c-4 -5 -3 -16 0 -25 6 -15 8 -15 20 1 7 10 14 21 14 26 0
10 -28 9 -34 -2z"/>
<path d="M1401 704 c0 -11 3 -14 6 -6 3 7 2 16 -1 19 -3 4 -6 -2 -5 -13z"/>
<path d="M2590 690 c0 -13 5 -18 15 -14 12 5 13 10 4 20 -15 19 -19 18 -19 -6z"/>
<path d="M2808 648 c-18 -29 -47 -75 -65 -101 -42 -62 -24 -51 26 16 39 54 86
137 76 137 -3 0 -20 -24 -37 -52z"/>
<path d="M2630 680 c0 -5 7 -7 15 -4 8 4 15 8 15 10 0 2 -7 4 -15 4 -8 0 -15
-4 -15 -10z"/>
<path d="M2510 660 c0 -5 14 -10 32 -10 36 0 35 4 -4 14 -17 4 -28 2 -28 -4z"/>
<path d="M405 650 c-3 -5 1 -10 9 -10 21 0 20 -27 -1 -39 -10 -6 -13 -11 -7
-11 7 0 10 -15 9 -37 -1 -21 -3 -51 -4 -66 -2 -41 -21 -22 -21 21 l-1 37 -12
-28 -12 -29 -28 26 c-15 14 -30 26 -33 26 -12 0 41 -59 62 -69 28 -12 30 -32
9 -90 -8 -23 -15 -59 -16 -79 -1 -20 -6 -61 -12 -90 -9 -46 -8 -55 7 -70 16
-16 17 -16 7 9 -13 36 -1 46 21 17 17 -22 17 -21 2 27 -13 46 -13 48 2 34 11
-12 17 -43 21 -115 2 -55 9 -103 15 -109 6 -7 9 -3 8 10 -4 34 0 56 8 52 4 -3
6 31 5 76 -2 60 -7 85 -19 96 -9 9 -14 10 -10 4 9 -17 -9 -17 -22 0 -15 17 -8
76 23 219 14 65 25 131 25 147 0 31 -24 59 -35 41z"/>
<path d="M1464 626 c-9 -15 -14 -29 -10 -33 3 -3 6 -1 6 5 0 6 7 18 16 27 9 9
14 18 11 21 -3 3 -13 -6 -23 -20z"/>
<path d="M1603 610 c0 -25 2 -35 4 -22 2 12 2 32 0 45 -2 12 -4 2 -4 -23z"/>
<path d="M1381 440 c-18 -314 -21 -393 -12 -340 10 59 35 512 29 530 -2 8 -10
-78 -17 -190z"/>
<path d="M1528 630 c17 -19 15 -40 -5 -62 -18 -20 -4 -25 15 -6 18 18 15 54
-5 69 -15 11 -16 11 -5 -1z"/>
<path d="M1871 624 c0 -11 3 -14 6 -6 3 7 2 16 -1 19 -3 4 -6 -2 -5 -13z"/>
<path d="M2650 629 c0 -5 5 -7 10 -4 6 3 10 8 10 11 0 2 -4 4 -10 4 -5 0 -10
-5 -10 -11z"/>
<path d="M2841 603 c-1 -12 -7 -24 -13 -26 -10 -4 -10 -6 0 -6 15 -1 26 23 19
41 -3 7 -6 3 -6 -9z"/>
<path d="M165 578 c11 -6 51 -38 88 -71 74 -65 105 -73 35 -9 -24 22 -56 52
-71 66 -15 14 -38 26 -50 26 -22 -1 -22 -1 -2 -12z"/>
<path d="M332 578 c2 -6 10 -14 16 -16 7 -2 10 2 6 12 -7 18 -28 22 -22 4z"/>
<path d="M1660 580 c8 -5 22 -9 30 -9 10 0 8 3 -5 9 -27 12 -43 12 -25 0z"/>
<path d="M1472 564 c10 -10 20 -16 22 -13 3 3 -5 11 -17 18 -21 13 -21 12 -5
-5z"/>
<path d="M1855 570 c-3 -5 -1 -10 4 -10 6 0 11 5 11 10 0 6 -2 10 -4 10 -3 0
-8 -4 -11 -10z"/>
<path d="M1593 450 c0 -97 1 -100 6 -35 4 39 4 86 0 105 -4 21 -7 -8 -6 -70z"/>
<path d="M1856 538 c3 -5 10 -6 15 -3 13 9 11 12 -6 12 -8 0 -12 -4 -9 -9z"/>
<path d="M80 532 c0 -38 146 -272 170 -272 6 0 -11 28 -38 63 -27 34 -67 98
-90 141 -23 44 -42 74 -42 68z"/>
<path d="M30 506 c0 -15 53 -106 62 -106 4 0 8 -6 8 -13 0 -7 11 -28 25 -47
14 -19 25 -29 25 -23 0 6 -7 16 -15 23 -8 6 -17 21 -21 32 -8 25 -84 146 -84
134z"/>
<path d="M1852 460 c0 -19 2 -27 5 -17 2 9 2 25 0 35 -3 9 -5 1 -5 -18z"/>
<path d="M1617 413 c-4 -3 -7 -13 -7 -22 1 -13 3 -13 11 2 11 19 8 33 -4 20z"/>
<path d="M2985 391 c-3 -5 -2 -12 3 -15 5 -3 9 1 9 9 0 17 -3 19 -12 6z"/>
<path d="M1841 354 c0 -11 3 -14 6 -6 3 7 2 16 -1 19 -3 4 -6 -2 -5 -13z"/>
<path d="M305 350 c-3 -5 1 -10 9 -10 8 0 18 5 21 10 3 6 -1 10 -9 10 -8 0
-18 -4 -21 -10z"/>
<path d="M2965 330 c-10 -11 -14 -20 -9 -20 5 0 15 9 22 20 7 11 11 20 9 20
-2 0 -12 -9 -22 -20z"/>
<path d="M1583 270 c0 -36 2 -50 4 -32 2 17 2 47 0 65 -2 17 -4 3 -4 -33z"/>
<path d="M465 310 c3 -5 11 -10 16 -10 6 0 7 5 4 10 -3 6 -11 10 -16 10 -6 0
-7 -4 -4 -10z"/>
<path d="M511 301 c-9 -6 -7 -10 8 -14 12 -3 21 -1 21 3 0 14 -15 19 -29 11z"/>
<path d="M2514 288 l-19 -23 23 19 c21 18 27 26 19 26 -2 0 -12 -10 -23 -22z"/>
<path d="M1880 260 c8 -5 20 -10 25 -10 6 0 3 5 -5 10 -8 5 -19 10 -25 10 -5
0 -3 -5 5 -10z"/>
<path d="M250 247 c0 -2 14 -16 32 -33 l31 -29 -23 33 c-20 27 -40 42 -40 29z"/>
<path d="M2180 216 c0 -2 7 -7 16 -10 8 -3 12 -2 9 4 -6 10 -25 14 -25 6z"/>
<path d="M1568 130 c-2 -39 -2 -70 0 -70 2 0 10 7 18 15 10 9 11 15 4 15 -8 0
-11 18 -8 55 1 30 0 55 -4 55 -3 0 -8 -32 -10 -70z"/>
<path d="M1850 168 c0 -4 16 -8 35 -8 19 0 35 2 35 4 0 2 -16 6 -35 8 -19 2
-35 0 -35 -4z"/>
<path d="M2370 150 c0 -10 80 -31 107 -28 33 3 18 15 -16 12 -17 -1 -31 2 -31
6 0 4 -13 10 -30 12 -16 3 -30 1 -30 -2z"/>
<path d="M2500 110 c-9 -6 -10 -10 -3 -10 6 0 15 5 18 10 8 12 4 12 -15 0z"/>
<path d="M566 83 c-6 -14 -5 -15 5 -6 7 7 10 15 7 18 -3 3 -9 -2 -12 -12z"/>
<path d="M440 39 c0 -5 5 -7 10 -4 6 3 10 8 10 11 0 2 -4 4 -10 4 -5 0 -10 -5
-10 -11z"/>
<path d="M1562 25 c0 -17 2 -22 5 -12 2 9 2 23 0 30 -3 6 -5 -1 -5 -18z"/>
</g>
</svg>
